PathFileType	4	(X/Y/Z)	D:\luciana\Cultery.trc
DataRate	CameraRate	NumFrames	NumMarkers	Units	OrigDataRate	OrigDataStartFrame	OrigNumFrames
250.00	250.00	10	17	mm	250.00	724	2050
Frame#	Time	pelvisR			Trunk1			Trunk2			Trunk3			C7			shoulder			upperArm1			upperArm2			upperArm3			elbow			forearm1			forearm2			forearm3			wrist1			wrist2			wrist3			Hand			
		X1	Y1	Z1	X2	Y2	Z2	X3	Y3	Z3	X4	Y4	Z4	X5	Y5	Z5	X6	Y6	Z6	X7	Y7	Z7	X8	Y8	Z8	X9	Y9	Z9	X10	Y10	Z10	X11	Y11	Z11	X12	Y12	Z12	X13	Y13	Z13	X14	Y14	Z14	X15	Y15	Z15	X16	Y16	Z16	X17	Y17	Z17	

1379	5.516000	1720.265627	651.145995	687.163830	1614.522934	856.196225	937.994242	1646.065831	766.902328	921.342909	1556.130886	799.353540	927.887082	1553.605556	1130.220294	834.123969	1714.506984	1062.249184	753.361702	1805.382490	933.767736	622.194111	1785.801411	883.905351	676.403046	1734.004974	968.682230	605.049670	1758.554816	842.872977	527.454674	1793.482304	823.297620	451.286256	1764.341354	760.810554	494.500905	1736.225843	867.815912	441.591859	1726.768017	819.082856	308.761716	1758.342385	749.667406	328.124285	1658.123016	815.728605	333.437413	1712.535620	762.171149	227.914676	
1380	5.520000	1720.274806	651.145101	687.185884	1614.451885	856.144547	938.029289	1645.819068	766.682684	921.085596	1556.027532	799.276650	927.825451	1553.633690	1130.224705	834.158242	1714.587092	1062.240601	753.510356	1805.712223	933.682859	622.597277	1786.003947	883.829594	676.740885	1734.308481	968.605936	605.250061	1759.210229	842.863739	527.838230	1793.903351	823.262572	451.481849	1764.775872	760.708988	494.591475	1736.286044	867.696404	441.832453	1726.920366	819.381177	309.067905	1758.473873	749.904275	328.213066	1658.392668	816.144824	333.837301	1712.516069	762.675822	228.134185	
1381	5.524000	1720.276356	651.142836	687.205911	1614.402294	856.117487	938.087463	1645.713687	766.601980	921.063423	1555.964470	799.249828	927.815020	1553.644419	1130.231738	834.195912	1714.672327	1062.232852	753.665447	1806.050181	933.600545	622.988343	1786.227107	883.762121	677.110255	1734.630585	968.524992	605.457485	1759.787917	842.771828	528.168738	1794.326067	823.246956	451.660275	1765.223503	760.602593	494.695574	1735.887766	867.417037	441.983789	1727.083206	819.694638	309.357733	1758.613586	750.156283	328.297168	1658.881664	816.996396	333.735108	1712.523937	763.198912	228.371054	
1382	5.528000	1720.278859	651.140571	687.222719	1614.358187	856.109560	938.134313	1645.644546	766.570449	921.087801	1555.895805	799.236000	927.818537	1553.655505	1130.226851	834.221661	1714.743257	1062.220216	753.810704	1806.371689	933.525741	623.376787	1786.465287	883.681297	677.504957	1734.958887	968.441904	605.677605	1760.320902	842.639565	528.479636	1794.750452	823.230505	451.834321	1765.683770	760.498762	494.813502	1737.596869	867.853880	442.644298	1727.254868	820.014775	309.668630	1758.786321	750.407875	328.410029	1659.476638	817.997396	333.544731	1712.519169	763.735831	228.604555	
1383	5.532000	1720.281720	651.144147	687.245369	1614.298582	856.111705	938.153863	1645.571828	766.536772	921.139836	1555.819869	799.222589	927.819431	1553.669095	1130.235195	834.261775	1714.801550	1062.214375	753.931701	1806.699276	933.453798	623.780251	1786.715746	883.608580	677.888632	1735.291362	968.351603	605.915606	1760.643959	842.343926	528.692901	1795.172215	823.186278	452.007353	1766.156673	760.381103	494.941175	1737.614155	867.715240	442.948550	1727.435350	820.393622	309.954494	1758.944511	750.669360	328.501701	1659.356356	817.731738	334.850580	1712.522984	764.309704	228.826731	
1384	5.536000	1720.299125	651.146889	687.269568	1614.238262	856.078029	938.175440	1645.505905	766.503870	921.176434	1555.748463	799.222529	927.824020	1553.692341	1130.242109	834.294319	1714.867115	1062.227488	754.066765	1807.046175	933.389485	624.205112	1786.955237	883.538663	678.260803	1735.611200	968.245864	606.117845	1760.794759	841.870606	528.832197	1795.628905	823.165119	452.188283	1766.645670	760.254860	495.043755	1736.485720	867.186725	443.003803	1727.629423	820.769548	310.278475	1759.098768	750.944376	328.593194	1659.456730	817.905962	335.476041	1712.520480	764.847398	229.044139	
1385	5.540000	1720.311999	651.146412	687.280893	1614.207745	856.052935	938.197136	1645.458698	766.495705	921.217561	1555.683136	799.212575	927.828550	1553.705215	1130.227327	834.303796	1714.936137	1062.229276	754.197121	1807.402968	933.314919	624.642015	1787.207127	883.477926	678.641737	1735.927701	968.141019	606.322289	1761.242509	841.616631	529.108346	1796.095729	823.128641	452.373624	1767.155170	760.120571	495.149046	1736.549258	867.050767	443.313897	1727.814078	821.141958	310.636848	1759.223223	751.197040	328.700185	1659.561038	818.147719	335.909873	1712.510347	765.379250	229.290530	
1386	5.544000	1720.323563	651.143610	687.310994	1614.186406	856.040299	938.243270	1645.417929	766.490340	921.256959	1555.635929	799.192309	927.841902	1553.712606	1130.240321	834.342599	1715.004802	1062.225461	754.324913	1807.770252	933.247864	625.078082	1787.463307	883.422971	679.029465	1736.243725	968.049765	606.517076	1761.720181	841.418445	529.416621	1796.581507	823.087335	452.553898	1767.655849	759.989202	495.261788	1736.888289	867.004573	443.680346	1728.012204	821.523786	311.009854	1759.372830	751.456618	328.823358	1659.762383	818.508506	336.359560	1712.477326	765.927613	229.556262	
1387	5.548000	1720.336199	651.144087	687.323332	1614.149094	856.042802	938.286841	1645.361423	766.466796	921.288848	1555.591226	799.179435	927.852392	1553.722262	1130.233288	834.369600	1715.069056	1062.224627	754.458606	1808.128953	933.176100	625.506520	1787.718177	883.370340	679.424644	1736.575842	967.948258	606.714606	1762.204766	841.228902	529.753149	1797.056437	823.022306	452.765673	1768.157244	759.844184	495.388448	1737.307310	866.973937	444.056690	1728.220701	821.894825	311.378539	1759.522319	751.722991	328.940451	1660.010099	818.900406	336.827487	1712.449551	766.489863	229.823604	
1388	5.552000	1720.338702	651.140213	687.336326	1614.111662	856.026471	938.311160	1645.327091	766.444802	921.334147	1555.543900	799.175084	927.865624	1553.725481	1130.219579	834.376931	1715.142608	1062.211394	754.598975	1808.487058	933.102429	625.915587	1787.974834	883.308887	679.829240	1736.905575	967.837453	606.931210	1762.975574	841.225028	530.203819	1797.523737	822.942257	452.973604	1768.665075	759.686828	495.534420	1738.544226	867.181480	444.603562	1728.429437	822.252691	311.745793	1759.685993	751.992404	329.079986	1660.300374	819.340944	337.308168	1712.444901	767.082393	230.115265	
